<svg width="84" height="18" viewBox="0 0 84 18" fill="none" xmlns="http://www.w3.org/2000/svg">
<path d="M8.43856 5.32321L6.69501 7.06676C6.05264 7.70912 5.40661 8.35149 4.76792 9.00119C4.61742 9.15536 4.50363 9.36091 4.45958 9.5628C4.22833 10.6236 4.00442 11.6844 3.78051 12.7452L3.65571 13.3325C3.59698 13.6189 3.67407 13.9052 3.86861 14.0997C4.01911 14.2502 4.22833 14.3346 4.44857 14.3346C4.51097 14.3346 4.57337 14.3273 4.63577 14.3163L5.28181 14.1805C6.30959 13.9639 7.34104 13.7437 8.36882 13.5308C8.60741 13.4794 8.8093 13.3729 8.98182 13.2004C11.8669 10.3116 14.7521 7.42648 17.6372 4.54503C17.8501 4.33213 17.9676 4.07886 17.9969 3.76685C18.0006 3.71546 17.9969 3.66408 17.9859 3.61636C17.9676 3.54294 17.9529 3.46586 17.9345 3.39245C17.8941 3.20525 17.8501 2.99235 17.762 2.78679C17.2224 1.55346 16.3268 0.672502 15.1008 0.176965C14.8548 0.077858 14.5942 0.0448222 14.3667 0.0154571L14.3043 0.00811581C13.9739 -0.0322613 13.6729 0.077858 13.4123 0.342144C11.7605 2.00127 10.0977 3.66408 8.43856 5.32321ZM14.1831 0.892741C14.1905 0.892741 14.1941 0.892741 14.2015 0.892741L14.2639 0.900082C14.4547 0.922106 14.6309 0.94413 14.7704 1.00286C15.7688 1.40663 16.503 2.12608 16.9471 3.13917C16.9985 3.25663 17.0315 3.40713 17.0646 3.56497C17.0756 3.6237 17.0903 3.68243 17.1013 3.74116C17.0866 3.80723 17.0609 3.85128 17.0095 3.899C14.1207 6.78045 11.2356 9.66925 8.35047 12.5544C8.30275 12.6021 8.2587 12.6241 8.19263 12.6388C7.16118 12.8554 6.1334 13.0719 5.10195 13.2885L4.55869 13.4023L4.66147 12.9214C4.88538 11.8643 5.10929 10.8035 5.33687 9.74633C5.34421 9.71329 5.37357 9.6619 5.40661 9.6252C6.0453 8.97917 6.68399 8.3368 7.32636 7.69811L9.06991 5.95456C10.7327 4.29176 12.3955 2.62895 14.0546 0.962483C14.1244 0.903753 14.1574 0.892741 14.1831 0.892741Z" fill="black"/>
<path d="M1.42788 4.00179H7.83682C8.08643 4.00179 8.28831 3.79991 8.28831 3.55031C8.28831 3.3007 8.08643 3.09882 7.83682 3.09882H1.42788C0.638692 3.09882 0 3.74118 0 4.5267V16.5444C0 17.3336 0.642363 17.9723 1.42788 17.9723H13.4419C14.2311 17.9723 14.8698 17.3299 14.8698 16.5444V10.3961C14.8698 10.1465 14.6679 9.94456 14.4183 9.94456C14.1687 9.94456 13.9668 10.1465 13.9668 10.3961V16.5444C13.9668 16.8344 13.7282 17.073 13.4382 17.073H1.42788C1.1379 17.073 0.899308 16.8344 0.899308 16.5444V4.53037C0.899308 4.24039 1.1379 4.00179 1.42788 4.00179Z" fill="black"/>
<path d="M27.6731 15V8H28.6531L28.7231 9.092C28.9751 8.66267 29.3018 8.35 29.7031 8.154C30.1138 7.958 30.5338 7.86 30.9631 7.86C31.4578 7.86 31.9244 7.972 32.3631 8.196C32.8018 8.42 33.1378 8.76533 33.3711 9.232C33.5204 8.91467 33.7304 8.658 34.0011 8.462C34.2718 8.25667 34.5658 8.10733 34.8831 8.014C35.2098 7.91133 35.5178 7.86 35.8071 7.86C36.2551 7.86 36.6798 7.95333 37.0811 8.14C37.4918 8.32667 37.8278 8.616 38.0891 9.008C38.3504 9.4 38.4811 9.904 38.4811 10.52V15H37.3611V10.632C37.3611 9.99733 37.2024 9.54 36.8851 9.26C36.5678 8.98 36.1758 8.84 35.7091 8.84C35.3451 8.84 35.0044 8.92867 34.6871 9.106C34.3698 9.28333 34.1131 9.54467 33.9171 9.89C33.7304 10.2353 33.6371 10.66 33.6371 11.164V15H32.5171V10.632C32.5171 9.99733 32.3584 9.54 32.0411 9.26C31.7238 8.98 31.3318 8.84 30.8651 8.84C30.5571 8.84 30.2398 8.924 29.9131 9.092C29.5958 9.25067 29.3298 9.50733 29.1151 9.862C28.9004 10.2167 28.7931 10.6833 28.7931 11.262V15H27.6731ZM43.9148 7.86C44.5775 7.86 45.1608 8.00467 45.6648 8.294C46.1782 8.58333 46.5795 9.00333 46.8688 9.554C47.1582 10.0953 47.3028 10.744 47.3028 11.5C47.3028 12.256 47.1582 12.9093 46.8688 13.46C46.5795 14.0013 46.1782 14.4167 45.6648 14.706C45.1608 14.9953 44.5775 15.14 43.9148 15.14C43.2615 15.14 42.6782 14.9953 42.1648 14.706C41.6515 14.4167 41.2502 14.0013 40.9608 13.46C40.6715 12.9093 40.5268 12.256 40.5268 11.5C40.5268 10.744 40.6715 10.0953 40.9608 9.554C41.2502 9.00333 41.6515 8.58333 42.1648 8.294C42.6782 8.00467 43.2615 7.86 43.9148 7.86ZM43.9148 8.826C43.4388 8.826 43.0328 8.93333 42.6968 9.148C42.3608 9.36267 42.0995 9.67067 41.9128 10.072C41.7355 10.464 41.6468 10.94 41.6468 11.5C41.6468 12.0507 41.7355 12.5267 41.9128 12.928C42.0995 13.3293 42.3608 13.6373 42.6968 13.852C43.0328 14.0667 43.4388 14.174 43.9148 14.174C44.3908 14.174 44.7968 14.0667 45.1328 13.852C45.4688 13.6373 45.7255 13.3293 45.9028 12.928C46.0895 12.5267 46.1828 12.0507 46.1828 11.5C46.1828 10.94 46.0895 10.464 45.9028 10.072C45.7255 9.67067 45.4688 9.36267 45.1328 9.148C44.7968 8.93333 44.3908 8.826 43.9148 8.826ZM52.1414 15.14C51.5627 15.14 51.0307 14.9953 50.5454 14.706C50.06 14.4167 49.6727 14.0013 49.3834 13.46C49.094 12.9093 48.9494 12.256 48.9494 11.5C48.9494 10.7253 49.1034 10.0673 49.4114 9.526C49.7194 8.98467 50.1254 8.574 50.6294 8.294C51.1334 8.00467 51.6747 7.86 52.2534 7.86C52.832 7.86 53.3314 8.00933 53.7514 8.308C54.1807 8.60667 54.4654 9.00333 54.6054 9.498L54.4654 9.596V4.78H55.5854V15H54.6054L54.5074 13.306L54.6614 13.222C54.596 13.6327 54.4374 13.9827 54.1854 14.272C53.9427 14.552 53.6394 14.7667 53.2754 14.916C52.9207 15.0653 52.5427 15.14 52.1414 15.14ZM52.2534 14.16C52.7014 14.16 53.0887 14.048 53.4154 13.824C53.7514 13.6 54.008 13.2827 54.1854 12.872C54.372 12.452 54.4654 11.962 54.4654 11.402C54.4654 10.87 54.372 10.4127 54.1854 10.03C54.008 9.64733 53.756 9.35333 53.4294 9.148C53.112 8.94267 52.7387 8.84 52.3094 8.84C51.6 8.84 51.0494 9.08267 50.6574 9.568C50.2654 10.0533 50.0694 10.6973 50.0694 11.5C50.0694 12.3027 50.2607 12.9467 50.6434 13.432C51.026 13.9173 51.5627 14.16 52.2534 14.16ZM58.7487 6.656C58.4967 6.656 58.2914 6.58133 58.1327 6.432C57.9834 6.27333 57.9087 6.068 57.9087 5.816C57.9087 5.564 57.9834 5.36333 58.1327 5.214C58.2914 5.05533 58.4967 4.976 58.7487 4.976C59.0007 4.976 59.2014 5.05533 59.3507 5.214C59.5094 5.36333 59.5887 5.564 59.5887 5.816C59.5887 6.068 59.5094 6.27333 59.3507 6.432C59.2014 6.58133 59.0007 6.656 58.7487 6.656ZM59.3087 8V15H58.1887V8H59.3087ZM64.7495 4.71C64.9921 4.71 65.2208 4.738 65.4355 4.794C65.6501 4.85 65.8181 4.92933 65.9395 5.032L65.6455 5.942C65.5335 5.86733 65.4121 5.816 65.2815 5.788C65.1508 5.75067 65.0061 5.732 64.8475 5.732C64.4461 5.732 64.1335 5.83 63.9095 6.026C63.6855 6.21267 63.5735 6.516 63.5735 6.936V8V8.364V15H62.4535V6.824C62.4535 6.516 62.5001 6.23133 62.5935 5.97C62.6868 5.70867 62.8268 5.48467 63.0135 5.298C63.2095 5.11133 63.4521 4.96667 63.7415 4.864C64.0308 4.76133 64.3668 4.71 64.7495 4.71ZM65.9115 8V8.966H61.0535V8H65.9115ZM67.9695 6.656C67.7175 6.656 67.5121 6.58133 67.3535 6.432C67.2041 6.27333 67.1295 6.068 67.1295 5.816C67.1295 5.564 67.2041 5.36333 67.3535 5.214C67.5121 5.05533 67.7175 4.976 67.9695 4.976C68.2215 4.976 68.4221 5.05533 68.5715 5.214C68.7301 5.36333 68.8095 5.564 68.8095 5.816C68.8095 6.068 68.7301 6.27333 68.5715 6.432C68.4221 6.58133 68.2215 6.656 67.9695 6.656ZM68.5295 8V15H67.4095V8H68.5295ZM74.062 15.14C73.3993 15.14 72.8067 14.9953 72.284 14.706C71.7707 14.4167 71.3693 14.0013 71.08 13.46C70.7907 12.9093 70.646 12.256 70.646 11.5C70.646 10.744 70.7907 10.0953 71.08 9.554C71.3693 9.00333 71.766 8.58333 72.27 8.294C72.774 8.00467 73.348 7.86 73.992 7.86C74.6453 7.86 75.2007 8 75.658 8.28C76.1247 8.56 76.4793 8.94267 76.722 9.428C76.9647 9.904 77.086 10.4407 77.086 11.038C77.086 11.1967 77.0813 11.3413 77.072 11.472C77.0627 11.6027 77.0487 11.7193 77.03 11.822H71.374V10.828H76.54L75.966 10.94C75.966 10.268 75.7793 9.75 75.406 9.386C75.042 9.022 74.5613 8.84 73.964 8.84C73.5067 8.84 73.11 8.94733 72.774 9.162C72.4473 9.36733 72.1907 9.67067 72.004 10.072C71.8267 10.464 71.738 10.94 71.738 11.5C71.738 12.0507 71.8313 12.5267 72.018 12.928C72.2047 13.3293 72.466 13.6373 72.802 13.852C73.1473 14.0573 73.558 14.16 74.034 14.16C74.5473 14.16 74.9627 14.062 75.28 13.866C75.6067 13.67 75.868 13.404 76.064 13.068L76.946 13.586C76.7687 13.9033 76.54 14.1787 76.26 14.412C75.9893 14.6453 75.6673 14.8273 75.294 14.958C74.93 15.0793 74.5193 15.14 74.062 15.14ZM79.2161 15V8H80.1261L80.2801 9.148C80.4761 8.71867 80.7607 8.39667 81.1341 8.182C81.5167 7.96733 81.9787 7.86 82.5201 7.86C82.6414 7.86 82.7721 7.86933 82.9121 7.888C83.0614 7.90667 83.1874 7.944 83.2901 8L83.0941 9.022C82.9914 8.98467 82.8794 8.95667 82.7581 8.938C82.6367 8.91933 82.4641 8.91 82.2401 8.91C81.9507 8.91 81.6567 8.994 81.3581 9.162C81.0687 9.33 80.8261 9.58667 80.6301 9.932C80.4341 10.268 80.3361 10.6973 80.3361 11.22V15H79.2161Z" fill="black"/>
</svg>
